<?xml version="1.0" encoding="UTF-8"?><svg id="uuid-285371cb-b1c5-421f-b6f8-d2af62208beb" xmlns="http://www.w3.org/2000/svg" viewBox="0 0 74.8 74.8"><g id="uuid-dec552cd-e733-47e0-936f-12e395d43330"><path d="M70.6,39.5c0,19.5-15.8,35.3-35.3,35.3S0,59,0,39.5,15.8,4.2,35.3,4.2s35.3,15.8,35.3,35.3" vector-effect="non-scaling-stroke" fill="#006" fill-rule="evenodd" isolation="isolate" opacity=".25"/><path d="M73.8,36.3c0,19.5-15.8,35.3-35.3,35.3S3.2,55.8,3.2,36.3,19,1,38.5,1s35.3,15.8,35.3,35.3" vector-effect="non-scaling-stroke" fill="#fff" fill-rule="evenodd" stroke="#1961ff" stroke-linecap="square" stroke-linejoin="bevel" stroke-width="2"/><g><path d="M23,44.1c-1.1,1.4-4.8,6.8-4.8,9.2,0,2.8,2.3,5.1,5.1,5.1s5.1-2.3,5.1-5.1c0-2.4-3.8-7.8-4.8-9.2-.1-.1-.2-.1-.3-.1s-.3,0-.3,.1" vector-effect="none" fill="#03c"/><path d="M57.3,18.4h-2.6c-.9,0-1.7,.8-1.7,1.7v4.3h-10.2v-4.3h3.8c.7,0,1.3-.6,1.3-1.3s-.6-1.3-1.3-1.3h-11.9c-.7,0-1.3,.6-1.3,1.3s.6,1.3,1.3,1.3h3.8v4.3h-8.6c-5.6,0-10.1,4.5-10.1,10.1v1.8h-.9c-.5,0-.9,.4-.9,.9v2.6c0,.5,.4,.9,.9,.9h8.5c.5,0,.9-.4,.9-.9v-2.6c0-.5-.4-.9-.9-.9h-.9v-1.8c0-1.8,1.5-3.3,3.3-3.3h23.1v4.3c0,.9,.8,1.7,1.7,1.7h2.6c.9,0,1.7-.8,1.7-1.7v-15.3c.1-1-.7-1.8-1.6-1.8" vector-effect="none" fill="#03c"/></g></g></svg>