<?xml version="1.0" encoding="UTF-8"?><svg id="uuid-7c711c39-2310-4d13-8a5b-999e35a28914" xmlns="http://www.w3.org/2000/svg" viewBox="0 0 74.8 74.8"><g id="uuid-58669303-3f5e-4642-88ee-06f7c956c6f2"><path d="M70.6,39.5c0,19.5-15.8,35.3-35.3,35.3S0,59,0,39.5,15.8,4.2,35.3,4.2s35.3,15.8,35.3,35.3" vector-effect="non-scaling-stroke" fill="#006" fill-rule="evenodd" isolation="isolate" opacity=".25"/><path d="M73.8,36.3c0,19.5-15.8,35.3-35.3,35.3S3.2,55.8,3.2,36.3,19,1,38.5,1s35.3,15.8,35.3,35.3" vector-effect="non-scaling-stroke" fill="#fff" fill-rule="evenodd" stroke="#1961ff" stroke-linecap="square" stroke-linejoin="bevel" stroke-width="2"/><path d="M53.3,15.5c3.3,38.2-22.8,31.6-26.7,31.9l-6,7-.2-2,5.2-6.1c-.6-3.1-3.6-9.7,1.5-17.4,5.1-7.8,12-8,26.2-13.4m-3.1,6.7c1.5-4.1-.8-.4-.8-.4-2.2,3.8-5.4,5.8-9,8.1-4.6,2.9-10.6,7.3-12.4,12.7-1.8,5.4-.8,2.8,.7,.4s6.5-6.1,9.8-8.2c4.6-2.9,9.1-5.7,11.7-12.6" vector-effect="none" fill="#093"/></g></svg>