<?xml version="1.0" encoding="UTF-8"?><svg id="uuid-cdf7385e-17d6-4c36-b10d-67dcae00a69a" xmlns="http://www.w3.org/2000/svg" viewBox="0 0 74.8 74.8"><g id="uuid-6f2fd592-e71f-4158-a696-4e8cd8b528b1"><path d="M70.6,39.5c0,19.5-15.8,35.3-35.3,35.3S0,59,0,39.5,15.8,4.2,35.3,4.2s35.3,15.8,35.3,35.3" vector-effect="non-scaling-stroke" fill="#006" fill-rule="evenodd" isolation="isolate" opacity=".25"/><path d="M73.8,36.3c0,19.5-15.8,35.3-35.3,35.3S3.2,55.8,3.2,36.3,19,1,38.5,1s35.3,15.8,35.3,35.3" vector-effect="non-scaling-stroke" fill="#fff" fill-rule="evenodd" stroke="#1961ff" stroke-linecap="square" stroke-linejoin="bevel" stroke-width="2"/><path d="M50.7,31l-.6,1c-.2,.4-.6,.5-1,.4-.8-.3-1.5-.7-2.2-1.3-.3-.3-.4-.7-.2-1.1l.6-1c-.5-.5-.8-1.2-1.1-1.9h-1.1c-.4,0-.8-.3-.8-.7-.1-.8-.1-1.7,0-2.5,.1-.4,.4-.7,.8-.7h1.1c.2-.7,.6-1.3,1.1-1.9l-.6-1c-.2-.4-.1-.8,.2-1.1,.6-.5,1.4-1,2.2-1.3,.4-.1,.8,0,1,.4l.6,1c.7-.1,1.4-.1,2.1,0l.6-1c.2-.4,.6-.5,1-.4,.8,.3,1.5,.7,2.2,1.3,.3,.3,.4,.7,.2,1.1l-.6,1c.5,.5,.8,1.2,1.1,1.9h1.1c.4,0,.8,.3,.8,.7,.1,.8,.1,1.7,0,2.5-.1,.4-.4,.7-.8,.7h-1.1c-.2,.7-.6,1.3-1.1,1.9l.6,1c.2,.4,.1,.8-.2,1.1-.6,.5-1.4,1-2.2,1.3-.4,.1-.8,0-1-.4l-.6-1c-.7,.1-1.4,.1-2.1,0m-.8-4c2.6,2,5.6-1,3.6-3.6-2.6-2-5.6,1-3.6,3.6m-7.8,10.4l2.3,1.1c.7,.4,1,1.2,.7,2-.6,1.6-1.8,3.1-2.9,4.5-.5,.6-1.4,.8-2.1,.4l-2-1.1c-1.1,.9-2.3,1.7-3.7,2.1v2.3c0,.8-.6,1.5-1.3,1.6-1.7,.3-3.4,.3-5.1,0-.8-.1-1.4-.8-1.4-1.6v-2.3c-1.4-.5-2.6-1.2-3.7-2.1l-2,1.1c-.7,.4-1.6,.2-2.1-.4-1.1-1.3-2.3-2.8-2.9-4.4-.3-.7,0-1.6,.7-2l2.3-1.1c-.3-1.4-.3-2.9,0-4.3l-2.3-1.1c-.7-.4-1-1.2-.7-2,.6-1.6,1.8-3.1,2.9-4.5,.5-.6,1.4-.8,2.1-.4l2,1.1c1.1-.9,2.3-1.7,3.7-2.1v-2.3c0-.8,.6-1.5,1.3-1.6,1.7-.3,3.4-.3,5.1,0,.8,.1,1.4,.8,1.4,1.6v2.3c1.4,.5,2.6,1.2,3.7,2.1l2-1.1c.7-.4,1.6-.2,2.1,.4,1.1,1.3,2.2,2.8,2.8,4.5,.3,.7,0,1.6-.7,2l-2.3,1.1c.4,1.3,.4,2.8,.1,4.2m-7.9,1.5c4-5.2-1.9-11.2-7.2-7.2-4,5.2,2,11.2,7.2,7.2m16.5,12.3l-.6,1c-.2,.4-.6,.5-1,.4-.8-.3-1.5-.7-2.2-1.3-.3-.3-.4-.7-.2-1.1l.6-1c-.5-.5-.8-1.2-1.1-1.9h-1.1c-.4,0-.8-.3-.8-.7-.1-.8-.1-1.7,0-2.5,.1-.4,.4-.7,.8-.7h1.1c.2-.7,.6-1.3,1.1-1.9l-.6-1c-.2-.4-.1-.8,.2-1.1,.6-.5,1.4-1,2.2-1.3,.4-.1,.8,0,1,.4l.6,1c.7-.1,1.4-.1,2.1,0l.6-1c.2-.4,.6-.5,1-.4,.8,.3,1.5,.7,2.2,1.3,.3,.3,.4,.7,.2,1.1l-.6,1c.5,.5,.8,1.2,1.1,1.9h1.1c.4,0,.8,.3,.8,.7,.1,.8,.1,1.7,0,2.5-.1,.4-.4,.7-.8,.7h-1.1c-.2,.7-.6,1.3-1.1,1.9l.6,1c.2,.4,.1,.8-.2,1.1-.6,.5-1.4,1-2.2,1.3-.4,.1-.8,0-1-.4l-.6-1c-.7,.2-1.4,.2-2.1,0m-.8-4c2.6,2,5.6-1,3.6-3.6-2.6-1.9-5.6,1-3.6,3.6" vector-effect="none" fill="#669"/></g></svg>