<?xml version="1.0" encoding="UTF-8"?><svg id="uuid-9664d7d1-cac2-4e0a-a459-e35c4d8b2da5" xmlns="http://www.w3.org/2000/svg" viewBox="0 0 74.8 74.8"><g id="uuid-29197afd-d53f-4b92-8a38-55f1706ea068"><path d="M70.6,39.5c0,19.5-15.8,35.3-35.3,35.3S0,59,0,39.5,15.8,4.2,35.3,4.2s35.3,15.8,35.3,35.3" vector-effect="non-scaling-stroke" fill="#006" fill-rule="evenodd" isolation="isolate" opacity=".25"/><path d="M73.8,36.3c0,19.5-15.8,35.3-35.3,35.3S3.2,55.8,3.2,36.3,19,1,38.5,1s35.3,15.8,35.3,35.3" vector-effect="non-scaling-stroke" fill="#fff" fill-rule="evenodd" stroke="#1961ff" stroke-linecap="square" stroke-linejoin="bevel" stroke-width="2"/><path d="M51.3,16.2H25.7c-1,0-1.8,.8-1.8,1.8V54.6c0,1,.8,1.8,1.8,1.8h17.4v-6.4c0-2,1.6-3.7,3.7-3.7h6.4V17.9c-.1-.9-.9-1.7-1.9-1.7h0m-4.2,25.6H29.7c-.8,0-1.4-.6-1.4-1.4s.6-1.4,1.4-1.4h17.4c.8,0,1.4,.6,1.4,1.4s-.6,1.4-1.4,1.4m0-7.3H29.7c-.8,0-1.4-.6-1.4-1.4s.6-1.4,1.4-1.4h17.4c.8,0,1.4,.6,1.4,1.4s-.6,1.4-1.4,1.4m0-7.3H29.7c-.8,0-1.4-.6-1.4-1.4s.6-1.4,1.4-1.4h17.4c.8,0,1.4,.6,1.4,1.4s-.6,1.4-1.4,1.4" vector-effect="none" fill="#999"/><path d="M44.9,50.1v6.4l8.2-8.2h-6.4c-1-.1-1.8,.8-1.8,1.8" vector-effect="none" fill="#8c8c8c"/></g></svg>