<?xml version="1.0" standalone="no"?>
<!DOCTYPE svg PUBLIC "-//W3C//DTD SVG 20010904//EN"
 "http://www.w3.org/TR/2001/REC-SVG-20010904/DTD/svg10.dtd">
<svg version="1.0" xmlns="http://www.w3.org/2000/svg"
 width="512.000000pt" height="512.000000pt" viewBox="0 0 512.000000 512.000000"
 preserveAspectRatio="xMidYMid meet">

<g transform="translate(0.000000,512.000000) scale(0.100000,-0.100000)"
fill="#000000" stroke="none">
<path d="M2490 3338 c-25 -13 -52 -36 -61 -53 -16 -27 -910 -2549 -966 -2723
-20 -63 -22 -80 -12 -115 23 -87 116 -136 203 -107 20 6 229 157 466 336 237
178 435 324 440 324 6 0 203 -146 440 -325 236 -179 441 -330 455 -335 106
-40 220 32 218 139 0 34 -127 404 -483 1411 -265 751 -489 1379 -499 1395 -18
33 -91 75 -131 75 -14 0 -46 -10 -70 -22z"/>
</g>
</svg>
