<?xml version="1.0" encoding="UTF-8"?><svg id="uuid-9a8b896c-74d6-4c46-891d-bd7097b1a286" xmlns="http://www.w3.org/2000/svg" viewBox="0 0 74.8 74.8"><g id="uuid-12a3713a-ae2c-46af-9791-beed6aaf3cde"><path d="M70.6,39.5c0,19.5-15.8,35.3-35.3,35.3S0,59,0,39.5,15.8,4.2,35.3,4.2s35.3,15.8,35.3,35.3" vector-effect="non-scaling-stroke" fill="#006" fill-rule="evenodd" isolation="isolate" opacity=".25"/><path d="M73.8,36.3c0,19.5-15.8,35.3-35.3,35.3S3.2,55.8,3.2,36.3,19,1,38.5,1s35.3,15.8,35.3,35.3" vector-effect="non-scaling-stroke" fill="#fff" fill-rule="evenodd" stroke="#1961ff" stroke-linecap="square" stroke-linejoin="bevel" stroke-width="2"/><path d="M39,35.2c3.7,0,6.7-2.9,6.7-6.6,0-2.8-4-8.4-5.8-10.8-.4-.6-1.3-.6-1.8,0-1.8,2.4-5.8,8.1-5.8,10.8,0,3.7,3,6.6,6.7,6.6m19.3,5.1c-.8-.7-2.1-.7-3,0l-6.4,5.2c-.8,.6-1.8,1-2.8,1h-8.2c-.6,0-1.1-.5-1.1-1.1s.5-1.1,1.1-1.1h5.5c1.1,0,2.1-.8,2.3-1.9,.2-1.4-.8-2.6-2.2-2.6h-11.2c-1.9,0-3.7,.6-5.2,1.8l-3.2,2.6h-3.9c-.6,0-1.1,.5-1.1,1.1v6.7c0,.6,.5,1.1,1.1,1.1h24.9c1,0,2-.3,2.8-1l10.5-8.4c1.1-.9,1.2-2.5,.1-3.4" vector-effect="none" fill="#19b0ff"/></g></svg>